<svg xmlns="http://www.w3.org/2000/svg" viewBox="0 0 510.2 698.5"  xmlns:v="https://vecta.io/nano"><path d="M127.7 275c-23.4 0-46.8.3-70.2-.2-5.7-.1-6.3 3.6-8.2 6.7-7.5 12.4-22.4 17-34.5 10.8-12.3-6.3-17.9-20.7-13-33.2 5.2-13.3 19.6-21.2 32.3-15.9 6.3 2.6 11 9.3 16.4 14.1 1.6 1.4 3.3 3.7 5 3.7l72.6-.3h13.4 38.9v-38.4l14.6-.1-.4 34.3c0 1.5 2.5 4.4 3.8 4.4 35.6-1.3 71.9 5.6 106.7-4 43.5-12 70.2-42.1 77.4-86.6 6.9-43-8.7-78.4-43.5-105.4-10 7.7-20.6 9.5-31.6 3.7-11.6-6-16.6-20.3-12-32.2s17.8-19.5 29.4-16.9c13.5 3 22.9 14.4 21.8 27.5-.4 4.9.8 7.6 4.5 10.7 38.6 32.3 53.5 73.5 43.1 122.7-11.4 53.7-59.8 93-114.7 94.1-25 .5-50.1.1-75.2.2H195c-.2 3.2-.5 5.7-.5 8.3l-.1 172.8c0 5.1 1 8.1 6.1 10.4 10.2 4.7 15.6 17 13.2 27.4-3.1 13.2-13.1 21.4-26.2 21.5-12.1.1-22.3-7.7-25.3-19.4-3.1-12.1 1.3-24 12.2-29.2 5.6-2.7 6.7-6 6.6-11.6l-.1-170.4v-9.6h-38.8l-14.4.1zM320.3 33c-7.1-.1-13.2 6.1-13.2 13.2.1 6.8 5.9 12.7 12.7 12.9 7.3.2 13.1-5.4 13.3-12.8.1-7.6-5.4-13.3-12.8-13.3zM13.8 267.8c-.1 7.5 5.6 13.5 12.8 13.4 6.3-.1 13-6.8 13.1-12.9 0-7-5.4-12.7-12.5-12.9-8.1-.3-13.3 4.5-13.4 12.4zm173.4 233.8c7 0 13.6-6.4 13.4-13.2-.1-6.8-6.8-13-13.8-12.9-6.5.1-12.6 6.5-12.6 13.2.1 6.4 6.7 12.9 13 12.9z" fill="#497aac"/><path d="M195 222.2l-14.6.1h-38.9v38.4h-13.4l-.3-36.7c0-.2-.2-.5-.7-1.7-5.1 0-10.6-.4-16 .2-1.9.2-4.2 2.6-5.2 4.5-5.4 10-15.1 16-25.2 15-11.4-1.1-20.8-8.5-23.5-18.5-3.3-11.9.3-22.7 9.9-29.7 11.1-8.2 29.8-6 35.8 6.4 4.7 9.9 11.2 9.3 19 9l6.1-.4-.2-61.7c0-1.7-2.9-3.8-4.9-5.1-10.3-6.6-16.2-15.6-13.9-28.1 1.9-10.5 8.5-17.6 18.9-20.7 12.3-3.7 25.6 2.5 31.2 14.5 5.3 11.2 1.6 26.1-9.5 32.1-7.1 3.8-8.4 8.5-8.2 15.7.4 17.6.1 35.1.1 53.9h39l14.6.1h78.4c32.7-.2 54.7-20.2 58.3-52.6 3-26.8-20.3-55.5-47.2-57.8-2.1-.2-5.5 2-6.5 4-5.9 11.6-16.6 17.5-28.8 15.3-11.7-2.1-20.6-11.6-21.8-23.4-1.2-11.2 5.9-23.1 16-27 12.2-4.6 24.4-1.4 31.4 9.9 3.5 5.8 7.9 7.2 13.7 8.3 34.7 6.6 59.3 38.1 56.3 71.7-3.2 36.5-32 63.8-68.3 64.3H195zm58.4-143.6c-6.8-.1-13.3 6.6-13.3 13.4.1 6.8 6.8 13.4 13.5 13.2 6.4-.2 12.7-6.5 12.9-13.1.2-6.5-6.5-13.5-13.1-13.5zM82.5 228.7c6.9-.1 13.3-6.6 13.2-13.5-.1-6.7-6.9-13-13.7-12.8-6.5.2-12.8 6.6-12.8 13-.1 6.9 6.4 13.4 13.3 13.3zM148 118.6c0-7.1-6.1-13.2-13.2-13.1-7.4.1-13 5.7-13 13.2 0 7.1 6.6 13.4 14 13.3 6.2-.2 12.3-6.8 12.2-13.4zm226.1 355.7c0-.5-.4-2.1.2-3.1 5.8-9.4-1.3-14.1-6.8-19.6L264.2 348.1c-3.3-3.4-5.9-4.7-10.9-2.8-11.4 4.3-24.2-.9-30.5-11.2-6.4-10.4-4.4-24.2 4.8-32.9 8.7-8.3 21.7-9.3 32.5-2.4 9.8 6.2 13.8 18.7 10.4 30.2-.7 2.5 0 6.8 1.8 8.6l110.5 111.1c3.7 3.7 6.6 2.9 10.5 1.7 11.2-3.3 22 .8 28.6 10.4 6.5 9.5 6.1 21.3-1 30.5-7 9-18.1 12.6-28.5 9.2-11.2-3.7-18.5-13.7-18.3-26.2zM245.2 307.4c-6.9.1-13.3 6.8-13 13.5.3 6.4 6.9 12.8 13.1 12.9 6.9.1 13.3-6.4 13.2-13.3 0-7.1-6.2-13.3-13.3-13.1zm154.9 154.9c-6.7.1-13.2 6.6-13.2 13.4.1 6.8 6.6 12.8 13.7 12.6 7.2-.2 12.3-5.6 12.3-12.8.1-7.4-5.5-13.2-12.8-13.2z" fill="#254191"/><path d="M510.2 471.1c-.5 8.4-5.2 16.7-15.1 21.1-10.2 4.6-19.9 2.9-28.3-4.4-7.7-6.7-10.6-15.7-7.6-25.2 2.1-6.5.3-9.9-4.1-14.3L348.3 341.6c-3.1-3.2-5.5-5.1-10.8-3.1-11.3 4.2-24.3-.9-30.1-10.4-6.4-10.5-5.1-24.1 3-32.6 8.4-8.7 22.1-10.4 33.1-4 9.9 5.8 14.7 18 10.8 29.9-1.6 4.9-.8 7.4 2.6 10.8l107.7 108c3.5 3.5 6.3 4.7 11.6 3.2 17.9-5.1 34.2 7.5 34 27.7zM329.3 326.5c7.5 0 13.1-5.6 13.1-13.2-.1-6.9-5.9-12.7-12.8-12.8-7.4-.1-13.2 5.8-13 13.3.2 7.2 5.6 12.7 12.7 12.7zm154.4 155c7.1.1 13.3-5.9 13.4-12.9.1-7.2-5.8-13.1-13.1-13.2-6.8-.1-12.5 5.4-12.8 12.4-.2 7.4 5.5 13.6 12.5 13.7zM195 209.3c-4.9 0-9.7 0-14.6-.1l.1-152.7c0-2.4-3.2-5.5-5.6-7-12.9-8-17.7-23.6-10.6-36 7.2-12.6 23-17.3 36-10.1 9.2 5 13.8 13.5 13.6 23.7-.2 10.4-6 17.8-14.9 23-2.2 1.3-4.8 4.3-4.8 6.5l.2 150.4c.1.8.4 1.6.6 2.3zm5.8-182.4c.2-7.3-5.5-13-13-13.2-7.4-.2-13.3 5.4-13.4 12.7-.1 6.2 6.3 12.8 12.6 13.1 6.7.3 13.6-6 13.8-12.6z" fill="#497aac"/><path d="M127.7 275h14.2l-.3 92.6c0 2 3.6 4.5 6 5.9 9.9 5.7 14.1 14.4 13.4 25.3-.6 10.1-6.3 17.6-15.5 21.5-9.8 4.1-19.3 3-27.7-4-14.2-11.9-12.1-34 4.5-43 4.4-2.4 5.8-4.8 5.8-9.7l-.4-88.6zm7.1 134.6c6.2.1 13.4-6.4 13.7-12.2.3-7.1-6.3-13.7-13.6-13.7-7.6 0-13 5.3-13.1 12.9 0 7.1 5.7 12.9 13 13zM47.9 662.4c-1.7 0-3.2-.6-4.3-1.7s-1.7-2.6-1.7-4.3V548.2c0-1.7.6-3.2 1.7-4.3s2.6-1.7 4.3-1.7h28.8c7.5 0 14.2 1.6 20 4.7 5.9 3.1 10.4 7.5 13.8 13.1 3.3 5.6 5 12 5 19.3 0 7-1.7 13.2-5 18.6s-7.9 9.7-13.8 12.8-12.5 4.6-20 4.6H53.9v41.1c0 1.7-.6 3.2-1.7 4.3-1.1 1.2-2.6 1.7-4.3 1.7zm6-58.6h22.8c5.2 0 9.9-1.1 13.9-3.2 4.1-2.1 7.3-5 9.6-8.7 2.4-3.7 3.5-7.9 3.5-12.6 0-5-1.2-9.5-3.5-13.3-2.4-3.8-5.6-6.9-9.6-9-4.1-2.2-8.7-3.2-13.9-3.2H53.9v50zm58.4 58.6c-1.3 0-2.4-.3-3.2-.8s-1.5-1.3-2.1-2.3l-29.6-47.1 12-3.1 27.6 44c1.5 2.5 1.8 4.6.8 6.5-.9 1.9-2.8 2.8-5.5 2.8zm60.3.8c-7.9 0-15-1.9-21.3-5.6s-11.2-8.9-14.9-15.3c-3.6-6.5-5.5-13.8-5.5-21.9 0-8.2 1.9-15.6 5.6-22 3.7-6.5 8.9-11.6 15.3-15.3 6.5-3.7 13.8-5.6 21.9-5.6s15.4 1.9 21.8 5.6 11.5 8.9 15.2 15.3c3.7 6.5 5.7 13.8 5.8 22l-4.8 3.7c0 7.4-1.7 14-5.2 19.9a37.62 37.62 0 0 1-14 14c-5.7 3.5-12.4 5.2-19.9 5.2zm1.3-10.8c6 0 11.3-1.4 15.9-4.2 4.7-2.8 8.4-6.6 11.1-11.5s4.1-10.3 4.1-16.4c0-6.2-1.4-11.7-4.1-16.5s-6.4-8.6-11.1-11.5c-4.7-2.8-10-4.2-15.9-4.2s-11.1 1.4-15.9 4.2c-4.7 2.8-8.5 6.6-11.2 11.5-2.8 4.8-4.2 10.3-4.2 16.5 0 6.1 1.4 11.5 4.2 16.4s6.5 8.7 11.2 11.5 10 4.2 15.9 4.2zm36.8 10c-1.7 0-3.2-.5-4.3-1.6s-1.7-2.5-1.7-4.2v-26.3l2.9-12.2 9.1 2.3v36.2c0 1.7-.6 3.2-1.7 4.2-1.2 1.1-2.6 1.6-4.3 1.6zm6.7 36.1c-1.7 0-3.2-.5-4.3-1.6s-1.7-2.5-1.7-4.4c0-1.7.6-3.2 1.7-4.3s2.6-1.7 4.3-1.7c4.7 0 8.9-1 12.5-3.1a23.1 23.1 0 0 0 8.5-8.5c2.1-3.6 3.2-7.8 3.2-12.5v-78.2c0-1.8.5-3.3 1.6-4.4s2.5-1.6 4.2-1.6 3.2.5 4.3 1.6 1.7 2.5 1.7 4.4v78.2c0 7-1.5 13.2-4.6 18.6s-7.3 9.7-12.8 12.8c-5.4 3.1-11.6 4.7-18.6 4.7zm29.9-136.3c-2.3 0-4.2-.8-5.9-2.5a8.22 8.22 0 0 1-2.5-6c0-2.6.8-4.6 2.5-6.1s3.7-2.2 5.9-2.2a8.41 8.41 0 0 1 5.8 2.2c1.7 1.5 2.5 3.5 2.5 6.1 0 2.4-.8 4.4-2.5 6-1.4 1.7-3.4 2.5-5.8 2.5zm73.5 101c-7.9 0-15-1.9-21.3-5.6s-11.2-8.9-14.9-15.3c-3.6-6.5-5.5-13.8-5.5-21.9 0-8.2 1.9-15.6 5.6-22 3.7-6.5 8.9-11.6 15.3-15.3 6.5-3.7 13.8-5.6 21.9-5.6s15.4 1.9 21.8 5.6 11.5 8.9 15.2 15.3c3.7 6.5 5.7 13.8 5.8 22l-4.8 3.7c0 7.4-1.7 14-5.2 19.9a37.62 37.62 0 0 1-14 14c-5.7 3.5-12.4 5.2-19.9 5.2zm1.2-10.8c6 0 11.3-1.4 15.9-4.2 4.7-2.8 8.4-6.6 11.1-11.5s4.1-10.3 4.1-16.4c0-6.2-1.4-11.7-4.1-16.5s-6.4-8.6-11.1-11.5c-4.7-2.8-10-4.2-15.9-4.2s-11.1 1.4-15.9 4.2c-4.7 2.8-8.5 6.6-11.2 11.5-2.8 4.8-4.2 10.3-4.2 16.5 0 6.1 1.4 11.5 4.2 16.4s6.5 8.7 11.2 11.5c4.8 2.8 10 4.2 15.9 4.2zm36.8 10c-1.7 0-3.2-.5-4.3-1.6s-1.7-2.5-1.7-4.2v-26.3l2.9-12.2 9.1 2.3v36.2c0 1.7-.6 3.2-1.7 4.2-1.1 1.1-2.6 1.6-4.3 1.6zm35.1 0c-1.8 0-3.3-.5-4.4-1.6s-1.6-2.5-1.6-4.2v-72.4c0-1.8.5-3.3 1.6-4.4s2.5-1.6 4.4-1.6c1.7 0 3.2.5 4.2 1.6 1.1 1.1 1.6 2.5 1.6 4.4v72.4c0 1.7-.5 3.2-1.6 4.2-1 1.1-2.4 1.6-4.2 1.6zm66.2 0c-1.7 0-3.2-.6-4.3-1.7s-1.7-2.5-1.7-4.2v-40c0-6.4-1.2-11.6-3.6-15.7s-5.7-7.2-9.9-9.2c-4.2-2.1-8.9-3.1-14.1-3.1-5 0-9.6 1-13.6 2.9-4.1 2-7.3 4.6-9.6 8-2.4 3.4-3.5 7.2-3.5 11.6h-8.5c.2-6.5 1.9-12.2 5.2-17.3s7.6-9.1 13.1-12c5.4-2.9 11.5-4.4 18.2-4.4 7.3 0 13.8 1.5 19.6 4.5 5.7 3 10.3 7.5 13.6 13.3 3.3 5.9 5 13 5 21.4v40c0 1.6-.6 3-1.7 4.2s-2.5 1.7-4.2 1.7z" fill="#254191"/></svg>